<svg xmlns="http://www.w3.org/2000/svg" viewBox="0 0 200 200"><defs><style>.cls-1{fill:none;}.cls-2{fill:#1a1a18;}</style></defs><title>bodoni</title><g id="Layer_2" data-name="Layer 2"><g id="Layer_1-2" data-name="Layer 1"><rect class="cls-1" width="200" height="200"/><path class="cls-2" d="M59.05,71.1h0L46,106.78h26.2ZM45.23,109.68l-2,5.79c-.09.26-.24.77-.46,1.51s-.44,1.56-.66,2.44-.41,1.82-.59,2.83a15.48,15.48,0,0,0-.26,2.7,6.66,6.66,0,0,0,.79,3.36,6.52,6.52,0,0,0,3,2.43,10.68,10.68,0,0,0,2.3.79,24.61,24.61,0,0,0,6,.53V135h-29v-2.9a17.63,17.63,0,0,0,5.72-1.19,9.69,9.69,0,0,0,4.55-3.81,20.27,20.27,0,0,0,1.9-3.76c.57-1.45,1.34-3.44,2.31-6L64.58,46.87h7.11l30.68,85.19h8V135H70.51v-2.9H81l-8.29-22.38Z"/><path class="cls-2" d="M147.4,105.07h0a22.51,22.51,0,0,0-3.2.26,27,27,0,0,0-3.6.78c-1.22.35-2.37.74-3.46,1.17a15,15,0,0,0-2.81,1.44,8.25,8.25,0,0,0-2.55,2.67,12.82,12.82,0,0,0-1.24,3,15.18,15.18,0,0,0-.46,3.07c0,1-.06,2-.06,3s0,2.13.13,3.26a8.22,8.22,0,0,0,.85,3.13,6,6,0,0,0,2.09,2.34,6.89,6.89,0,0,0,3.85.91,10.14,10.14,0,0,0,5.75-1.56,35.45,35.45,0,0,0,4.71-3.78Zm28.17,24c-.7.7-1.6,1.63-2.7,2.77a15.9,15.9,0,0,1-3.75,2.89,15.05,15.05,0,0,1-8,2.11,13,13,0,0,1-5.4-1.06,16.65,16.65,0,0,1-4.08-2.5,11.74,11.74,0,0,1-2.5-2.83,24.52,24.52,0,0,1-1.71-3.09,24.69,24.69,0,0,1-3.69,3.69,30.64,30.64,0,0,1-9.87,5,21.94,21.94,0,0,1-6.06.79,19.6,19.6,0,0,1-12.51-4,18,18,0,0,1-3.75-4.35,13.22,13.22,0,0,1-1.78-7.24,14.16,14.16,0,0,1,1.65-7.11,15.7,15.7,0,0,1,4-4.74,18.49,18.49,0,0,1,5.14-2.83,46.36,46.36,0,0,1,5-1.51q5-1.18,10.4-1.91t11.46-1V87.46a15.26,15.26,0,0,0-.27-2.67,5.79,5.79,0,0,0-1.58-2.93,11.7,11.7,0,0,0-3-2.21,12.13,12.13,0,0,0-6-1.18c-3.16,0-5.46.55-6.91,1.63s-2.17,2.1-2.17,3.06a2.84,2.84,0,0,0,1,2.21,22.78,22.78,0,0,1,2,1.95,9.87,9.87,0,0,1,1.51,2.34,6.92,6.92,0,0,1,.59,2.87A9.11,9.11,0,0,1,130.74,98c-1.27,1.74-3.44,2.6-6.51,2.6a8.59,8.59,0,0,1-9.22-9,11.53,11.53,0,0,1,3.09-7.84,22.38,22.38,0,0,1,9-5.72,34.63,34.63,0,0,1,7.7-2,58.55,58.55,0,0,1,7.84-.52,59.34,59.34,0,0,1,10.8.72,26.11,26.11,0,0,1,5,1.38,15.44,15.44,0,0,1,4,2.37,9.51,9.51,0,0,1,2.24,2.7,8.64,8.64,0,0,1,.92,2.63,12.79,12.79,0,0,1,.2,2.05v38.44a8.66,8.66,0,0,0,.26,2.17,3.64,3.64,0,0,0,.93,1.65,2.65,2.65,0,0,0,2,.66,3.84,3.84,0,0,0,2.5-1c.79-.66,1.54-1.34,2.24-2Z"/></g></g></svg>