<svg xmlns="http://www.w3.org/2000/svg" viewBox="0 0 200 200"><defs><style>.cls-1{fill:none;}.cls-2{fill:#1a1a18;}</style></defs><title>carol_gothic</title><g id="Layer_2" data-name="Layer 2"><g id="Layer_1-2" data-name="Layer 1"><rect class="cls-1" width="200" height="200"/><path class="cls-2" d="M77.53,73.64h0L68.18,99.86H85Zm-34.22,4.8h0a34.31,34.31,0,0,0,1.23,9,31.33,31.33,0,0,0,3.64,8.44,24.89,24.89,0,0,0,6.09,6.7,19.51,19.51,0,0,0,8.74,3.7L66,98.38a13.47,13.47,0,0,0-2.21-5,4.46,4.46,0,0,0-3.57-2.21,3.79,3.79,0,0,0-2.34,1l-.49-1a8.75,8.75,0,0,1,3-3,6.86,6.86,0,0,1,3.39-.92A6.62,6.62,0,0,1,67,88a5.65,5.65,0,0,1,2.28,2.21l1.35-3.32a9.14,9.14,0,0,0-3.08-4.86,8.33,8.33,0,0,0-5.66-2.16,7.52,7.52,0,0,0-3.26.8,9.29,9.29,0,0,0-3.14,2.65l-.86-.86a17.13,17.13,0,0,1,5.17-6.83,10.45,10.45,0,0,1,6.28-2.28q4.66,0,7.63,4.43l2.58-7.14q-1-2.58-2-5.42a21.92,21.92,0,0,0-2.58-5.17,12.76,12.76,0,0,0-4.12-3.81,12.37,12.37,0,0,0-6.34-1.48,15.06,15.06,0,0,0-7.7,2,17.42,17.42,0,0,0-5.66,5.29,25.06,25.06,0,0,0-3.45,7.57A33.08,33.08,0,0,0,43.31,78.44Zm62.17,56.75a16.18,16.18,0,0,1-1.36,1.66q-.74.79-1.35,1.41a19.38,19.38,0,0,1-6.22-6,32.36,32.36,0,0,1-3.75-8l-5-16.13H64.86l-4.19,11.33a17.73,17.73,0,0,1,7.26,1.85,42,42,0,0,1,6.28,4.06l3.69-4.43,1.48,1.47L66.21,138.26c-.9-1-1.83-1.92-2.77-2.83a26.24,26.24,0,0,0-2.89-2.4,15.63,15.63,0,0,0-3.2-1.72,10.09,10.09,0,0,0-3.7-.68,11.39,11.39,0,0,0-6.83,2.09,11,11,0,0,0-4,6.53l-1.48-.62A27.42,27.42,0,0,1,47.19,125a14.8,14.8,0,0,1,11.14-5.54l3.94-11.33A22.52,22.52,0,0,1,53,104.29a25.39,25.39,0,0,1-6.53-6.83,30.69,30.69,0,0,1-3.87-9,40.4,40.4,0,0,1-1.3-10.28,33.11,33.11,0,0,1,2.34-12.86,29.16,29.16,0,0,1,6-9.36,26.24,26.24,0,0,1,8.19-5.72,21.73,21.73,0,0,1,8.8-2,23.07,23.07,0,0,1,8.07,1.23,15.69,15.69,0,0,1,5.47,3.38A17.66,17.66,0,0,1,83.87,58a41.92,41.92,0,0,1,2.41,6.28,25.44,25.44,0,0,1,2.4-9A15.06,15.06,0,0,1,95,48.52l1.1,1.6Q89.48,54.3,89.48,62.8a31.91,31.91,0,0,0,1.35,8.5q1.35,4.8,3.32,12.43l7.76,27q.5,1.73,1.17,3.75a28.44,28.44,0,0,0,1.6,3.88,15.5,15.5,0,0,0,2.28,3.39,8.19,8.19,0,0,0,3.32,2.27l3.57-5.29,2.09,1.35Z"/><path class="cls-2" d="M137.85,107.49h0a19.09,19.09,0,0,1-5.41-1.66,34.68,34.68,0,0,1-4.43-2.9,20.81,20.81,0,0,0-1.73,5.3,30,30,0,0,0-.49,5.41c0,4.35.51,7.66,1.54,9.91a11.15,11.15,0,0,0,4.37,5.11l6.15-5.78ZM119.63,84.22h0A31.92,31.92,0,0,0,126,97.83a20.72,20.72,0,0,0,11.81,7.32V90.87q-4.92-1.35-9.66-3A53.23,53.23,0,0,1,119.63,84.22Zm-2.58-1.84a27.74,27.74,0,0,0,8.49-3.08,21.44,21.44,0,0,0,4.8-3.94,26.5,26.5,0,0,0,7.14,3.88,59.16,59.16,0,0,0,9.61,2.4,20.45,20.45,0,0,0,4.61-2.77c1.11-1,2.11-1.87,3-2.77l1.48,1a60.07,60.07,0,0,0-4.37,6.47,17.16,17.16,0,0,0-2.16,8.92v26.1c0,3.12.35,5.37,1.05,6.77a6.24,6.24,0,0,0,2.77,2.95l4.18-2.83,1,1.85-12.44,9.6a9.17,9.17,0,0,1-2.83-1.79,22,22,0,0,1-2.71-2.83,15.47,15.47,0,0,1-2-3.32,8.35,8.35,0,0,1-.8-3.39l-12.06,11.33a36.19,36.19,0,0,1-4.25-2.09,14.69,14.69,0,0,1-3.81-3.14,15.15,15.15,0,0,1-2.71-4.62,17.66,17.66,0,0,1-1-6.4,17.08,17.08,0,0,1,1.11-6.28,21.4,21.4,0,0,1,2.89-5.17A24.72,24.72,0,0,1,122,105a49.6,49.6,0,0,1,4.62-3.33,34.66,34.66,0,0,1-6.09-8.86A48.16,48.16,0,0,1,117.05,82.38Z"/></g></g></svg>