<svg xmlns="http://www.w3.org/2000/svg" viewBox="0 0 200 200"><defs><style>.cls-1{fill:none;}.cls-2{fill:#1a1a18;}</style></defs><title>futura</title><g id="Layer_2" data-name="Layer 2"><g id="Layer_1-2" data-name="Layer 1"><rect class="cls-1" width="200" height="200"/><path class="cls-2" d="M83.76,104.49h0L71.65,75.39l-12.59,29.1Zm5,12.36H53.92L45,137.57H31.54l40.6-90.89,38.66,90.89H97.34Z"/><path class="cls-2" d="M142.54,93.28h0a12.63,12.63,0,0,0-5.89,1.36,13,13,0,0,0-4.42,3.73,18.14,18.14,0,0,0-2.85,5.54,21.51,21.51,0,0,0-1,6.76,21.19,21.19,0,0,0,1,6.63,18.09,18.09,0,0,0,2.85,5.53,13,13,0,0,0,4.42,3.74,12.62,12.62,0,0,0,5.89,1.35,13.82,13.82,0,0,0,5.39-1.1,13.29,13.29,0,0,0,4.61-3.21,15.92,15.92,0,0,0,3.21-5.35,21,21,0,0,0,1.22-7.47,22.58,22.58,0,0,0-1.22-7.72,15.65,15.65,0,0,0-3.21-5.47,13.32,13.32,0,0,0-4.61-3.22,13.82,13.82,0,0,0-5.39-1.1m13.69-9.91h12.23v54.2H156.23v-5.66a18,18,0,0,1-4.07,3.86A20.35,20.35,0,0,1,148,138a18.32,18.32,0,0,1-3.89,1,23.42,23.42,0,0,1-3.17.26,22.83,22.83,0,0,1-10.57-2.38,23.25,23.25,0,0,1-7.78-6.44,29.07,29.07,0,0,1-4.8-9.21,35.17,35.17,0,0,1-1.65-10.81,33.1,33.1,0,0,1,2-11.85,27.2,27.2,0,0,1,5.41-8.94,23.85,23.85,0,0,1,7.9-5.67,23.42,23.42,0,0,1,9.6-2,24.06,24.06,0,0,1,3.29.26,17.07,17.07,0,0,1,3.89,1.1,18.65,18.65,0,0,1,4.13,2.38,19.22,19.22,0,0,1,3.89,4Z"/></g></g></svg>