<svg xmlns="http://www.w3.org/2000/svg" viewBox="0 0 200 200"><defs><style>.cls-1{fill:none;}.cls-2{fill:#1a1a18;}</style></defs><title>genplan_pro</title><g id="Layer_2" data-name="Layer 2"><g id="Layer_1-2" data-name="Layer 1"><rect class="cls-1" width="200" height="200"/><path class="cls-2" d="M87.1,133.94h0a1.5,1.5,0,0,1,.34,2.37.5.5,0,0,1-.34.11,3.38,3.38,0,0,1-1.35-.67l-10.26-7.1a1.56,1.56,0,0,1-.45-2.37c.23-.3.79-.15,1.69.45Zm10.93-8h0a2.26,2.26,0,0,1-.17.68q-.17.45-.51.45a3,3,0,0,1-1.35-.56l-32.79-23a1.47,1.47,0,0,1-.45-2.37c.22-.3.79-.11,1.69.56l32.79,22.88A1.88,1.88,0,0,1,98,125.94Zm-5.86-12.51h0a2.15,2.15,0,0,1-.23.74c-.15.33-.33.5-.56.5A3.38,3.38,0,0,1,90,114L57.46,91.24A1.48,1.48,0,0,1,57,88.87c.23-.3.79-.11,1.69.56l32.68,22.76A1.41,1.41,0,0,1,92.17,113.43Zm7.44,21.86h0a2.2,2.2,0,0,1-.17.68c-.12.3-.28.45-.51.45a3,3,0,0,1-1.35-.56L53,104.64a1.48,1.48,0,0,1-.33-2.36c.22-.3.79-.11,1.69.56l44.51,31.1A1.88,1.88,0,0,1,99.61,135.29ZM51.83,53.49h0a2,2,0,0,1,.17-.68c.11-.3.28-.45.5-.45a3.11,3.11,0,0,1,1.36.56L67.6,62.61A1.46,1.46,0,0,1,68.39,64a2,2,0,0,1-.17.67c-.11.3-.28.45-.5.45a3.45,3.45,0,0,1-1.36-.67L52.62,54.84A1.84,1.84,0,0,1,51.83,53.49ZM74.36,76.36h0a2.18,2.18,0,0,1-.16.68q-.18.45-.51.45a3,3,0,0,1-1.35-.57L43.94,57a1.84,1.84,0,0,1-.79-1.35c0-1.28.68-1.43,2-.45L73.58,75A1.86,1.86,0,0,1,74.36,76.36Zm6,12.28h0a2.21,2.21,0,0,1-.23.74c-.15.33-.34.5-.56.5a3.38,3.38,0,0,1-1.35-.67l-37.3-26a1.38,1.38,0,0,1-.79-1.24c0-1.43.71-1.62,2.14-.57l37.3,26A1.41,1.41,0,0,1,80.34,88.64Zm5.86,12.51h0a2.26,2.26,0,0,1-.17.68c-.12.3-.28.45-.51.45a3,3,0,0,1-1.35-.57L38,69.37A1.84,1.84,0,0,1,37.18,68c0-1.27.67-1.46,2-.56L85.41,99.8A1.88,1.88,0,0,1,86.2,101.15Zm-34.94-17h0c1,.6,1.09,1.39.34,2.36-.3.3-.86.12-1.69-.56L35,75.57a1.84,1.84,0,0,1-.79-1.35c0-1.28.67-1.47,2-.56Zm-3,6.19h0c.9.53,1.05,1.28.45,2.26-.22.3-.79.15-1.69-.45L32.11,81.77a1.84,1.84,0,0,1-.79-1.35c0-.68.17-1,.51-1.07a3,3,0,0,1,1.52.5Zm-2.93,6.09h0a1.49,1.49,0,0,1,.34,2.36c-.22.31-.79.12-1.69-.56L29.07,87.85a1.35,1.35,0,0,1-.79-1.23c0-1.43.71-1.62,2.14-.57ZM70.2,122.11h0a1.5,1.5,0,0,1,.33,2.37c-.22.3-.79.11-1.69-.57L26.14,94.05a1.37,1.37,0,0,1-.79-1.24c0-1.42.71-1.61,2.14-.56Zm-11.84,0h0a1.56,1.56,0,0,1,.45,2.37c-.22.3-.78.15-1.69-.45L23.21,100.25a1.45,1.45,0,0,1-.79-1.35c0-1.28.67-1.47,2-.57Zm-11.83,0h0a1.47,1.47,0,0,1,.45,2.37c-.22.3-.79.11-1.69-.57l-25-17.46a1.84,1.84,0,0,1-.79-1.35c0-1.28.67-1.43,2-.46Zm-11.72,0h0a1.5,1.5,0,0,1,.34,2.37c-.23.3-.79.11-1.69-.57L17.35,112.65a1.88,1.88,0,0,1-.79-1.36c0-1.27.67-1.42,2-.45Zm-4.5,5.18h0a1.47,1.47,0,0,1,.45,2.37c-.23.3-.79.11-1.69-.56L14.3,118.84a1.39,1.39,0,0,1-.79-1.24c0-1.42.72-1.61,2.15-.56Zm-3.16,6h0a1.55,1.55,0,0,1,.45,2.36c-.22.3-.79.15-1.69-.45L11.37,125a1.88,1.88,0,0,1-.79-1.35c0-1.28.68-1.47,2-.57Zm-10.82.67a1.56,1.56,0,0,1,.45,2.37.47.47,0,0,1-.33.11,3,3,0,0,1-1.36-.56l-6.65-4.62a1.86,1.86,0,0,1-.78-1.35c0-1.28.67-1.47,2-.57Z"/><path class="cls-2" d="M168.68,130.34h0a2.26,2.26,0,0,1,.17-.68q.17-.45.51-.45a3,3,0,0,1,1.35.56l6,4.17a1.84,1.84,0,0,1,.79,1.35,3.3,3.3,0,0,1-.11.68.54.54,0,0,1-.57.45,3,3,0,0,1-1.35-.56l-6-4.17a1.84,1.84,0,0,1-.79-1.35m-11.83-24.79h0a2.26,2.26,0,0,1,.17-.68c.11-.3.28-.45.5-.45a3.07,3.07,0,0,1,1.36.56l32.68,22.88a1.86,1.86,0,0,1,.78,1.35,2.18,2.18,0,0,1-.16.68q-.18.45-.51.45a3,3,0,0,1-1.35-.57L157.64,106.9A1.84,1.84,0,0,1,156.85,105.55Zm-.34-41.36h0a2.18,2.18,0,0,1,.23-.73c.15-.34.33-.51.56-.51a3.52,3.52,0,0,1,1.35.68l2.82,1.91a1.87,1.87,0,0,1,.79,1.36,2.22,2.22,0,0,1-.17.67q-.17.45-.51.45a2.92,2.92,0,0,1-1.35-.56l-2.93-2A1.37,1.37,0,0,1,156.51,64.19ZM148.4,108h0a2.13,2.13,0,0,1,.22-.74c.15-.34.34-.5.57-.5a3.5,3.5,0,0,1,1.35.67l38,26.48a1.38,1.38,0,0,1,.79,1.24,2.38,2.38,0,0,1-.17.73.63.63,0,0,1-.62.51,3.5,3.5,0,0,1-1.35-.67l-38-26.49A1.35,1.35,0,0,1,148.4,108Zm-3.61-43.95h0a2.26,2.26,0,0,1,.17-.68q.16-.45.51-.45a3,3,0,0,1,1.35.56l20.62,14.54a1.38,1.38,0,0,1,.79,1.24,2.26,2.26,0,0,1-.17.68q-.17.45-.51.45a3,3,0,0,1-1.35-.57L145.58,65.43A1.84,1.84,0,0,1,144.79,64.08Zm29.52,27.61h0a2.09,2.09,0,0,1-.22.73c-.15.34-.34.51-.56.51a3.53,3.53,0,0,1-1.36-.68L140,69.71a1.84,1.84,0,0,1-.79-1.35c0-.75.22-1.13.67-1.13a2.81,2.81,0,0,1,1.36.68l32.34,22.54A1.38,1.38,0,0,1,174.31,91.69Zm6,12.62h0a2.22,2.22,0,0,1-.17.67q-.17.45-.51.45a3.5,3.5,0,0,1-1.35-.67L136.9,75.91a1.86,1.86,0,0,1-.78-1.35c0-.75.22-1.13.67-1.13a3,3,0,0,1,1.35.56l41.36,29A1.91,1.91,0,0,1,180.29,104.31Zm6.08,12.28h0a2.09,2.09,0,0,1-.22.73q-.22.51-.57.51a3.28,3.28,0,0,1-1.46-.68L134,82a1.45,1.45,0,0,1-.78-1.35c0-.75.22-1.12.67-1.12a2.71,2.71,0,0,1,1.35.67l50.37,35.27A1.31,1.31,0,0,1,186.37,116.59ZM147.83,97.88h0a2.07,2.07,0,0,1-.22.74c-.15.33-.34.5-.56.5a3.45,3.45,0,0,1-1.36-.67L130.93,88.19a1.37,1.37,0,0,1-.79-1.24c0-.82.26-1.24.79-1.24a2.75,2.75,0,0,1,1.35.68l14.77,10.25A1.4,1.4,0,0,1,147.83,97.88Zm-3,6.31h0a1.94,1.94,0,0,1-.17.68c-.11.3-.28.45-.5.45a3,3,0,0,1-1.36-.56L128,94.39a1.88,1.88,0,0,1-.79-1.35c0-.75.23-1.13.68-1.13a3,3,0,0,1,1.35.56L144,102.84A1.84,1.84,0,0,1,144.79,104.19Zm17,20.17h0a2.2,2.2,0,0,1-.17.68q-.16.45-.51.45a3.5,3.5,0,0,1-1.35-.67L125,100.48a1.31,1.31,0,0,1-.79-1.13c0-.83.26-1.24.79-1.24a2.71,2.71,0,0,1,1.35.67L161,123A1.88,1.88,0,0,1,161.81,124.36Zm-11.72-.11h0a2.11,2.11,0,0,1-.23.73c-.15.34-.34.51-.56.51a3.38,3.38,0,0,1-1.35-.67L122,106.67a1.45,1.45,0,0,1-.79-1.35c0-.75.23-1.13.68-1.13a2.75,2.75,0,0,1,1.35.68l26,18.14A1.4,1.4,0,0,1,150.09,124.25Zm-11.83.11h0a2.2,2.2,0,0,1-.17.68c-.12.3-.28.45-.51.45a3,3,0,0,1-1.35-.56L119,112.87a1.37,1.37,0,0,1-.79-1.24c0-.82.26-1.24.79-1.24a2.75,2.75,0,0,1,1.35.68L137.47,123A1.88,1.88,0,0,1,138.26,124.36ZM133,129h0a3.3,3.3,0,0,1-.11.68.54.54,0,0,1-.57.45,3.5,3.5,0,0,1-1.35-.67l-14.87-10.37a1.84,1.84,0,0,1-.79-1.35c0-.75.22-1.13.67-1.13a3.11,3.11,0,0,1,1.36.56l14.87,10.48A1.45,1.45,0,0,1,133,129Zm-3.16,6h0a2.13,2.13,0,0,1-.16.67q-.18.45-.51.45a2.92,2.92,0,0,1-1.35-.56l-14.65-10.37a1.37,1.37,0,0,1-.79-1.24c0-.75.22-1.12.67-1.12a3.11,3.11,0,0,1,1.36.56L129,133.6A1.89,1.89,0,0,1,129.8,135Zm-11.26.33a2.85,2.85,0,0,1-.12.68.53.53,0,0,1-.56.45,3,3,0,0,1-1.35-.56l-6.43-4.51a1.38,1.38,0,0,1-.78-1.24c0-.82.26-1.24.78-1.24a2.81,2.81,0,0,1,1.36.68l6.31,4.39A1.88,1.88,0,0,1,118.54,135.29Z"/></g></g></svg>