<svg xmlns="http://www.w3.org/2000/svg" viewBox="0 0 200 200"><defs><style>.cls-1{fill:none;}.cls-2{fill:#1a1a18;}</style></defs><title>karolla</title><g id="Layer_2" data-name="Layer 2"><g id="Layer_1-2" data-name="Layer 1"><rect class="cls-1" width="200" height="200"/><path class="cls-2" d="M90.57,117.46a51.75,51.75,0,0,0-5.2-8.5,33.21,33.21,0,0,0-3.25-3.6q-.53,14.67-1.63,24A119.69,119.69,0,0,1,78,144.31,35.77,35.77,0,0,1,75,152.55a23.17,23.17,0,0,1-2.66,3.92,20.8,20.8,0,0,1-5,3.93,12.68,12.68,0,0,1-6.44,1.87,11.28,11.28,0,0,1-3.25-.52,9.08,9.08,0,0,1-3.12-1.67,8.88,8.88,0,0,1-2.34-3,10.31,10.31,0,0,1-.91-4.57,13.27,13.27,0,0,1,2.47-8.43,36.87,36.87,0,0,1,5.2-5.47c1.22-1,2.26-1.94,3.12-2.71a10.93,10.93,0,0,0,2.21-2.7,18.67,18.67,0,0,0,1.63-3.8,56.67,56.67,0,0,0,1.43-6q.72-3.72,1.5-9.2t1.82-13.59a5.41,5.41,0,0,0-.91-.25,1.6,1.6,0,0,0-1,.32,10.38,10.38,0,0,0-.92.84,23.62,23.62,0,0,1-3.44,3,8.19,8.19,0,0,1-4.88,1.35,8,8,0,0,1-2.92-.58,8.26,8.26,0,0,1-2.73-1.73,8.91,8.91,0,0,1-2-2.9A10.18,10.18,0,0,1,51,96.47,9.56,9.56,0,0,1,52,92.61a12.52,12.52,0,0,1,2.67-3.8A14.36,14.36,0,0,1,59,85.92a15.2,15.2,0,0,1,6.17-1.16,14.56,14.56,0,0,1,7.16,1.8c.52-3.6,1-7,1.49-10.23a76.85,76.85,0,0,1,1.89-9.08,38.87,38.87,0,0,1,3.12-7.92,33.22,33.22,0,0,1,5.07-7,19.89,19.89,0,0,1,5.66-4.18,15.67,15.67,0,0,1,7-1.48,13.58,13.58,0,0,1,5.66,1.09,11.19,11.19,0,0,1,3.9,2.84,11.72,11.72,0,0,1,2.21,3.73,11.53,11.53,0,0,1,.72,3.93,8.65,8.65,0,0,1-1.56,5.15,10.69,10.69,0,0,1-3.38,3.21,8.64,8.64,0,0,1-2.35.91,10.33,10.33,0,0,1-2.21.25,14.72,14.72,0,0,1-3.18-.32,13.67,13.67,0,0,0-2.8-.32,4.91,4.91,0,0,0-3,.84,8.45,8.45,0,0,0-2.15,2.76,24.78,24.78,0,0,0-1.69,4.83q-.78,3-1.36,6.5c-.4,2.32-.7,4.6-.92,6.83S84,93,83.94,94.54a34.62,34.62,0,0,1,3.71,4.64,58.55,58.55,0,0,1,3.7,6.82h.39l.65-30.9a10.33,10.33,0,0,1,.72-3.6c.47-1.29,1.62-1.93,3.44-1.93a5.49,5.49,0,0,1,2.54.51,3.77,3.77,0,0,1,1.49,1.35,5.36,5.36,0,0,1,.72,1.87c.13.69.24,1.33.32,1.93l3.78,39.53q.25,3.6.71,7.14a52,52,0,0,1,.46,6.5,13.82,13.82,0,0,1-1.56,7q-1.56,2.7-6.25,2.7a7.87,7.87,0,0,1-4.61-1.16,7.21,7.21,0,0,1-2.41-2.77,10.21,10.21,0,0,1-1-3.41,29.47,29.47,0,0,1-.2-3.09Z"/><path class="cls-2" d="M128.35,111h0a11.43,11.43,0,0,0-1.76,6.24c0,1.72.37,2.84,1.11,3.35a3.38,3.38,0,0,0,1.75.77,2.66,2.66,0,0,0,2.28-1.16,8.48,8.48,0,0,0,1.3-2.89,20.87,20.87,0,0,0,.59-3.93c.08-1.46.12-2.87.12-4.25v-3.47a19.66,19.66,0,0,0-5.39,5.34M133,129.82a14.32,14.32,0,0,1-1.89,4.19,9.29,9.29,0,0,1-3.19,3.15,8.12,8.12,0,0,1-3.64.9,8.34,8.34,0,0,1-4-1.09,8.62,8.62,0,0,1-3.45-4.06,15.64,15.64,0,0,1-1.5-5,44.6,44.6,0,0,1-.45-6.44c0-1.54.06-3,.19-4.5a21.13,21.13,0,0,1,.72-4,15.42,15.42,0,0,1,3.77-7.27,43.86,43.86,0,0,1,5.2-4.31c1-.69,2.08-1.46,3.38-2.32s3.21-2.19,5.73-4a7.8,7.8,0,0,0,.13-1.8,5.65,5.65,0,0,0-.33-1.94c-.22-.6-.76-.9-1.63-.9a5.59,5.59,0,0,0-2.47.65,8.66,8.66,0,0,1-3.9.9,8.43,8.43,0,0,1-3.51-.71,7.18,7.18,0,0,1-2.47-1.74,7.31,7.31,0,0,1-1.82-5,10.44,10.44,0,0,1,3-7.08,12,12,0,0,1,4.81-2.77,20.35,20.35,0,0,1,6.24-1,19.3,19.3,0,0,1,3.58.32,10.83,10.83,0,0,1,3.19,1.09,10.7,10.7,0,0,1,5.59,6.05,27.52,27.52,0,0,1,1.43,9.27c0,1.12,0,2-.07,2.51s-.08,1.21-.13,1.94-.11,1.63-.19,2.7-.13,2.68-.13,4.83l-.26,13.13v.64c0,1.89.21,3.14.65,3.74s.95,1.37,1.56,2.31a14,14,0,0,1,1.82,7,10.87,10.87,0,0,1-1.82,6.18,6.41,6.41,0,0,1-5.72,2.7,6.93,6.93,0,0,1-5.46-2.19,12.68,12.68,0,0,1-2.74-6.05Z"/></g></g></svg>