<svg xmlns="http://www.w3.org/2000/svg" viewBox="0 0 200 200"><defs><style>.cls-1{fill:none;}</style></defs><title>lazurski</title><g id="Layer_2" data-name="Layer 2"><g id="Layer_1-2" data-name="Layer 1"><rect class="cls-1" width="200" height="200"/><path d="M66.85,69h0a54.47,54.47,0,0,1-2.6,7.23Q62.66,79.76,61,83.41l-7.88,18c1.61.25,3.39.44,5.34.56s3.81.19,5.59.19,3.49-.06,5.39-.19a46.73,46.73,0,0,0,5-.56L70.53,83.79c-.5-2.43-1-5-1.58-7.67a44.88,44.88,0,0,1-1-7.3Zm-45,63h2.28a9.46,9.46,0,0,0,7-3.15A33.29,33.29,0,0,0,34,125c1-1.6,2.13-3.4,3.23-5.42s2.23-4.15,3.37-6.42,2.27-4.54,3.37-6.8l13.84-29.6Q60.62,70.87,63.61,64t5.15-13.41a46.5,46.5,0,0,0,9.9-2.89q.51,3,1.4,7.55c.59,3,1.21,6.13,1.84,9.32s1.25,6.24,1.84,9.13,1.1,5.19,1.53,6.87l5,21.91q.77,3,1.59,6.49t1.78,6.86q.94,3.4,1.84,6.37a41.63,41.63,0,0,0,1.78,5,7.12,7.12,0,0,0,2.92,3.65,9.83,9.83,0,0,0,5.08,1.14h1.9l-.63,4.65h-3a35.14,35.14,0,0,1-7.3-.76,34.81,34.81,0,0,0-7-.75,27.77,27.77,0,0,0-6.54.75,29.7,29.7,0,0,1-7.05.76H70.15l.64-4.65h2.54A4.82,4.82,0,0,0,77.58,130a8.78,8.78,0,0,0,1.34-5.11,36.66,36.66,0,0,0-1.15-8.49c-.76-3.19-1.48-6.41-2.16-9.64q-1.9.26-5.84.38c-2.62.09-5.21.13-7.75.13-.76,0-1.67,0-2.73-.07l-3.24-.12L52.94,107a22.72,22.72,0,0,1-2.35-.19q-1.4,3.45-2.86,6.64t-2.66,5.94c-.81,1.83-1.46,3.47-2,4.91a11.1,11.1,0,0,0-.76,3.45c0,1.62.46,2.73,1.39,3.32a7.56,7.56,0,0,0,4.07.9h2.92l-.51,4.65H48.05a21.11,21.11,0,0,1-5.84-.76,25.36,25.36,0,0,0-6.73-.75,19.9,19.9,0,0,0-5.85.75,16.7,16.7,0,0,1-5.08.76H21.38Z"/><path d="M161.47,83.92h0a27.82,27.82,0,0,0-7.93.82A32,32,0,0,0,147,87.19a30.07,30.07,0,0,0-5.08,3.28q-2.16,1.77-3.42,3a43,43,0,0,0-4.9,5.86,45.26,45.26,0,0,0-4.12,7.25,46.25,46.25,0,0,0-2.86,8.39,39.86,39.86,0,0,0-1.08,9.39,13.57,13.57,0,0,0,.25,2.58,7.1,7.1,0,0,0,1,2.46,6.15,6.15,0,0,0,1.77,1.89,4.62,4.62,0,0,0,2.74.76,7.69,7.69,0,0,0,4.63-2,49,49,0,0,0,4.13-3.6,39.28,39.28,0,0,0,6.86-9.2q3.16-5.67,5.84-11.79t4.89-11.92q2.22-5.79,3.87-9.7m17.15,40.36c-2,1.35-3.89,2.75-5.84,4.22s-3.77,2.87-5.46,4.21c-1.87,1.43-3.81,2.87-5.85,4.34a10.26,10.26,0,0,1-6,2.2,9.19,9.19,0,0,1-2.48-.38,6,6,0,0,1-2.35-1.26,6.81,6.81,0,0,1-1.72-2.45,10.28,10.28,0,0,1-.69-4.09,22,22,0,0,1,.63-5.47c.42-1.63.85-3,1.27-4.21h-1q-1.91,2.52-4.57,5.66a53.22,53.22,0,0,1-5.78,5.85,32.82,32.82,0,0,1-6.73,4.53,16.64,16.64,0,0,1-7.56,1.82,12.5,12.5,0,0,1-5.84-1.26,10.19,10.19,0,0,1-3.87-3.46,15.63,15.63,0,0,1-2.16-5,23.43,23.43,0,0,1-.7-5.79,31.44,31.44,0,0,1,3.36-13.39A49,49,0,0,1,124.89,97,60.2,60.2,0,0,1,148,82.09a80.82,80.82,0,0,1,28.13-4.59q-2.93,7.31-5.71,14.78t-5,14q-2.16,6.54-3.43,11.51a33.78,33.78,0,0,0-1.27,7c0,2.26.43,3.69,1.27,4.27a4,4,0,0,0,2.16.88,5,5,0,0,0,2.8-1.57l4.19-3.71q2.16-2.13,4.44-4.53c1.53-1.59,2.54-2.72,3.05-3.39Z"/></g></g></svg>