<svg xmlns="http://www.w3.org/2000/svg" viewBox="0 0 200 200"><defs><style>.cls-1{fill:none;}.cls-2{fill:#1a1a18;}</style></defs><title>liberteen</title><g id="Layer_2" data-name="Layer 2"><g id="Layer_1-2" data-name="Layer 1"><rect class="cls-1" width="200" height="200"/><path class="cls-2" d="M60.44,60.29h-.6L43.77,102.13H76.28Zm-9.22,77.42h-41L9.73,130l13.83-1.42L50,59.7l-18-1.18.47-8H92.82l.59,8L75.57,59.58l26.83,69.27L115.64,130l-.36,7.68H68.83L68.36,130l18.2-1.18-7.09-18.44H40.7l-7.1,18.32,18,1.3Z"/><path class="cls-2" d="M146.6,130.27h0A15.23,15.23,0,0,0,157,126.42q4.37-3.84,5.55-11.4l.59-8.63q-3.9,2.83-12.76,4.25-7.69,1.31-10.88,3.49t-3.19,7.39A8,8,0,0,0,139,127.9q2.72,2.37,7.56,2.37M176,138.78a15.55,15.55,0,0,1-9.93-3.08q-3.9-3.07-4.14-10.28a21.54,21.54,0,0,1-7.86,10.11q-5.38,3.72-14.48,3.72-8.62,0-13.71-4.08t-5.08-12q0-7.44,4.72-11.17t15.72-4.67a88.42,88.42,0,0,0,15.07-2.24q5.15-1.43,7-3.19a25.71,25.71,0,0,0-.65-8.69,13.5,13.5,0,0,0-3-5.62,11.13,11.13,0,0,0-4.9-3,21.14,21.14,0,0,0-6.21-.89,21.46,21.46,0,0,0-4.67.42,8.62,8.62,0,0,0-2.89,1.12,3.52,3.52,0,0,0-1.42,1.66,5.58,5.58,0,0,0-.35,2,9.47,9.47,0,0,0,.7,3.2,11.19,11.19,0,0,1,.71,4,6.72,6.72,0,0,1-.71,3.3,7,7,0,0,1-1.83,2.19,6.66,6.66,0,0,1-2.48,1.24,10,10,0,0,1-2.54.36,7.75,7.75,0,0,1-5.91-2.25q-2.13-2.24-2.13-6.74a12,12,0,0,1,2-6.67,15.57,15.57,0,0,1,5.44-5,30.4,30.4,0,0,1,8.27-3.13,46.29,46.29,0,0,1,10.58-1.12,44.19,44.19,0,0,1,13.06,1.65,19.92,19.92,0,0,1,8.4,4.85,17,17,0,0,1,4.31,8,37,37,0,0,1,.83,10.93L177,119a23.9,23.9,0,0,0,.53,7.68,2.92,2.92,0,0,0,2.9,2.36,2.59,2.59,0,0,0,2.66-1.59,15.48,15.48,0,0,0,.41-5.85l-.23-3.79,6.14-.82.71,5.32a20.76,20.76,0,0,1-.35,7.5,11.34,11.34,0,0,1-2.72,5.08,11.56,11.56,0,0,1-4.73,2.9A19.72,19.72,0,0,1,176,138.78Z"/></g></g></svg>