<svg xmlns="http://www.w3.org/2000/svg" viewBox="0 0 200 200"><defs><style>.cls-1{fill:none;}.cls-2{fill:#1a1a18;}</style></defs><title>olga_script</title><g id="Layer_2" data-name="Layer 2"><g id="Layer_1-2" data-name="Layer 1"><rect class="cls-1" width="200" height="200"/><path class="cls-2" d="M83.85,99.32Q81.1,107,77.76,114.16a75.62,75.62,0,0,1-7.45,12.78,37.67,37.67,0,0,1-9,9,18.26,18.26,0,0,1-10.59,3.35q-6.15,0-9.64-3.49a18.86,18.86,0,0,1-4.86-9.29,47.41,47.41,0,0,1-.95-13.4,99.29,99.29,0,0,1,2.19-15.8A98.07,98.07,0,0,1,44.06,76.7a61.5,61.5,0,0,1,9.5-15.11,38.48,38.48,0,0,1,12-9.37A31.65,31.65,0,0,1,79.61,49q7.38,0,12,2.66a17.73,17.73,0,0,1,7,7.25,27.14,27.14,0,0,1,2.8,10.87,61.3,61.3,0,0,1-.68,13.4H99.43A52.08,52.08,0,0,0,100,70.41,22.79,22.79,0,0,0,97,60.77a16.12,16.12,0,0,0-6.77-6.16,24.47,24.47,0,0,0-10.94-2.18q-11.2,0-19.89,10.39T46,95.5a145.67,145.67,0,0,0-2.53,16,71.56,71.56,0,0,0-.2,13.54,22.59,22.59,0,0,0,2.6,9.37,6.35,6.35,0,0,0,5.74,3.48q6.42,0,11.82-5.26a56.2,56.2,0,0,0,9.85-13.33,125.58,125.58,0,0,0,7.93-17.64q3.48-9.57,6.08-18.32h8.21L88,118.88c-.82,4-1.42,7.27-1.78,9.77a56.13,56.13,0,0,0-.61,5.81,5.56,5.56,0,0,0,.34,2.74,1.13,1.13,0,0,0,.95.68q3.15,0,6.7-4.71a70.82,70.82,0,0,0,7-11.83l1.36.41a73.54,73.54,0,0,1-7.65,12.44q-4,5.06-7.66,5.06a8.49,8.49,0,0,1-3.28-.75,6.39,6.39,0,0,1-3-2.94,15.64,15.64,0,0,1-1.57-6.22,37.2,37.2,0,0,1,1-10.46Z"/><path class="cls-2" d="M142.77,111.9c-1.36,3.56-2.85,7-4.44,10.33a53.77,53.77,0,0,1-5.19,8.75,26,26,0,0,1-6.09,6,12.06,12.06,0,0,1-7,2.26,11,11,0,0,1-7.8-2.67,14.81,14.81,0,0,1-4.1-7.11,32.45,32.45,0,0,1-1-10.18,70.22,70.22,0,0,1,1.65-11.9q3.69-17.51,12.37-27T142,70.88a20.75,20.75,0,0,1,9.85,2.06,14.68,14.68,0,0,1,5.88,5.53,19.34,19.34,0,0,1,2.46,8.21,42.14,42.14,0,0,1-.41,10h-1.37q1.77-10.4-2.05-16.75t-14.77-6.36q-8.47,0-14.56,7.79t-9.77,25c-.82,4-1.46,7.91-1.92,11.7a47.53,47.53,0,0,0-.27,10,16.33,16.33,0,0,0,2,7.05,5.29,5.29,0,0,0,4.79,2.66q4.1,0,7.65-3.89a42.9,42.9,0,0,0,6.56-10,107.78,107.78,0,0,0,5.47-13.33q2.46-7.24,4.38-13.81h8.2l-4.65,22q-1.23,6-1.7,9.77a26.7,26.7,0,0,0-.28,5.81,5.13,5.13,0,0,0,.82,2.74,1.86,1.86,0,0,0,1.44.68c2.09,0,4.33-1.57,6.7-4.71a70.83,70.83,0,0,0,7-11.83l1.37.41a73.54,73.54,0,0,1-7.66,12.44q-4,5.06-7.66,5.06a10.65,10.65,0,0,1-3.76-.75,7.14,7.14,0,0,1-3.41-2.94,14.5,14.5,0,0,1-1.92-6.22,33.4,33.4,0,0,1,.89-10.46Z"/></g></g></svg>